<?xml version="1.0" encoding="UTF-8"?>
<!DOCTYPE svg PUBLIC "-//W3C//DTD SVG 1.1//EN" "http://www.w3.org/Graphics/SVG/1.1/DTD/svg11.dtd">
<!-- Creator: CorelDRAW 2020 (64-Bit) -->
<svg xmlns="http://www.w3.org/2000/svg" xml:space="preserve" width="140.308mm" height="119.26mm" version="1.1" style="shape-rendering:geometricPrecision; text-rendering:geometricPrecision; image-rendering:optimizeQuality; fill-rule:evenodd; clip-rule:evenodd"
viewBox="0 0 12241.95 10405.47"
 xmlns:xlink="http://www.w3.org/1999/xlink"
 xmlns:xodm="http://www.corel.com/coreldraw/odm/2003">
 <defs>
  <style type="text/css">
   <![CDATA[
    .str0 {stroke:#2B2A29;stroke-width:17.45;stroke-miterlimit:22.9256}
    .fil0 {fill:none}
   ]]>
  </style>
 </defs>
 <g id="Слой_x0020_1">
  <metadata id="CorelCorpID_0Corel-Layer"/>
  <path class="fil0 str0" d="M3028.68 2768.61l1580.17 -2297.44c2065.57,-1647.01 2492.51,1614.09 2520.08,1641.54 814.07,810.49 3801.46,-3050.17 3569.53,244.31 -81.46,1157.03 -948.6,1454.56 -393.54,1854.56 1987.83,1432.53 3164.22,5761.24 -157.65,4369.83 -6.4,-2.68 1031.88,501.27 225.05,1434.55 -1114.26,1288.88 -6696.51,-1038.64 -3970.29,-1813.65 290.94,-82.7 655.34,2257.77 -1658.39,794.3 -2948.97,-1865.27 -326.91,-4515.4 -806.33,-2500.84 -406.75,1709.19 -3611.52,-431.32 -3608.03,-725.7 12.33,-1043.01 1250.62,363.28 287.64,536.76 -598.6,107.83 -1417.63,-1818.78 1221.53,-1316.61 647.4,123.18 74.49,-1749.34 899,-1838.92 39.23,-4.27 244.85,-315.26 291.23,-382.71z"/>
 </g>
</svg>
